<svg width="779" height="750" viewBox="0 0 779 750" fill="none" xmlns="http://www.w3.org/2000/svg">
<mask id="path-1-outside-1_254_16" maskUnits="userSpaceOnUse" x="71" y="248" width="673" height="286" fill="black">
<rect fill="white" x="71" y="248" width="673" height="286"/>
<path d="M181.092 464.75L72.5924 409.8V365.7L181.092 310.75V360.1L113.192 387.4L181.092 415.4V464.75ZM374.396 533V417.15L320.496 249.5H379.646L406.596 339.1L430.746 249.5H487.446L434.596 417.15V533H374.396ZM633.754 464.75V415.4L701.654 387.4L633.754 360.1V310.75L742.255 365.7V409.8L633.754 464.75Z"/>
</mask>
<path d="M181.092 464.75L72.5924 409.8V365.7L181.092 310.75V360.1L113.192 387.4L181.092 415.4V464.75ZM374.396 533V417.15L320.496 249.5H379.646L406.596 339.1L430.746 249.5H487.446L434.596 417.15V533H374.396ZM633.754 464.75V415.4L701.654 387.4L633.754 360.1V310.75L742.255 365.7V409.8L633.754 464.75Z" fill="#1C1C1C"/>
<path d="M181.092 464.75L180.641 465.642L182.092 466.377V464.75H181.092ZM72.5924 409.8H71.5924V410.414L72.1406 410.692L72.5924 409.8ZM72.5924 365.7L72.1406 364.808L71.5924 365.086V365.7H72.5924ZM181.092 310.75H182.092V309.123L180.641 309.858L181.092 310.75ZM181.092 360.1L181.465 361.028L182.092 360.776V360.1H181.092ZM113.192 387.4L112.819 386.472L110.541 387.388L112.811 388.324L113.192 387.4ZM181.092 415.4H182.092V414.731L181.474 414.476L181.092 415.4ZM181.092 464.75L181.544 463.858L73.0442 408.908L72.5924 409.8L72.1406 410.692L180.641 465.642L181.092 464.75ZM72.5924 409.8H73.5924V365.7H72.5924H71.5924V409.8H72.5924ZM72.5924 365.7L73.0442 366.592L181.544 311.642L181.092 310.75L180.641 309.858L72.1406 364.808L72.5924 365.7ZM181.092 310.75H180.092V360.1H181.092H182.092V310.75H181.092ZM181.092 360.1L180.719 359.172L112.819 386.472L113.192 387.4L113.565 388.328L181.465 361.028L181.092 360.1ZM113.192 387.4L112.811 388.324L180.711 416.324L181.092 415.4L181.474 414.476L113.574 386.476L113.192 387.4ZM181.092 415.4H180.092V464.75H181.092H182.092V415.4H181.092ZM374.396 533H373.396V534H374.396V533ZM374.396 417.15H375.396V416.993L375.348 416.844L374.396 417.15ZM320.496 249.5V248.5H319.124L319.544 249.806L320.496 249.5ZM379.646 249.5L380.604 249.212L380.39 248.5H379.646V249.5ZM406.596 339.1L405.639 339.388L406.649 342.747L407.562 339.36L406.596 339.1ZM430.746 249.5V248.5H429.98L429.781 249.24L430.746 249.5ZM487.446 249.5L488.4 249.801L488.81 248.5H487.446V249.5ZM434.596 417.15L433.643 416.849L433.596 416.996V417.15H434.596ZM434.596 533V534H435.596V533H434.596ZM374.396 533H375.396V417.15H374.396H373.396V533H374.396ZM374.396 417.15L375.348 416.844L321.448 249.194L320.496 249.5L319.544 249.806L373.444 417.456L374.396 417.15ZM320.496 249.5V250.5H379.646V249.5V248.5H320.496V249.5ZM379.646 249.5L378.689 249.788L405.639 339.388L406.596 339.1L407.554 338.812L380.604 249.212L379.646 249.5ZM406.596 339.1L407.562 339.36L431.712 249.76L430.746 249.5L429.781 249.24L405.631 338.84L406.596 339.1ZM430.746 249.5V250.5H487.446V249.5V248.5H430.746V249.5ZM487.446 249.5L486.493 249.199L433.643 416.849L434.596 417.15L435.55 417.451L488.4 249.801L487.446 249.5ZM434.596 417.15H433.596V533H434.596H435.596V417.15H434.596ZM434.596 533V532H374.396V533V534H434.596V533ZM633.754 464.75H632.754V466.377L634.206 465.642L633.754 464.75ZM633.754 415.4L633.373 414.476L632.754 414.731V415.4H633.754ZM701.654 387.4L702.036 388.324L704.306 387.388L702.028 386.472L701.654 387.4ZM633.754 360.1H632.754V360.776L633.381 361.028L633.754 360.1ZM633.754 310.75L634.206 309.858L632.754 309.123V310.75H633.754ZM742.255 365.7H743.255V365.086L742.706 364.808L742.255 365.7ZM742.255 409.8L742.706 410.692L743.255 410.414V409.8H742.255ZM633.754 464.75H634.754V415.4H633.754H632.754V464.75H633.754ZM633.754 415.4L634.136 416.324L702.036 388.324L701.654 387.4L701.273 386.476L633.373 414.476L633.754 415.4ZM701.654 387.4L702.028 386.472L634.128 359.172L633.754 360.1L633.381 361.028L701.281 388.328L701.654 387.4ZM633.754 360.1H634.754V310.75H633.754H632.754V360.1H633.754ZM633.754 310.75L633.303 311.642L741.803 366.592L742.255 365.7L742.706 364.808L634.206 309.858L633.754 310.75ZM742.255 365.7H741.255V409.8H742.255H743.255V365.7H742.255ZM742.255 409.8L741.803 408.908L633.303 463.858L633.754 464.75L634.206 465.642L742.706 410.692L742.255 409.8Z" fill="#FF6B00" mask="url(#path-1-outside-1_254_16)"/>
<mask id="path-3-outside-2_254_16" maskUnits="userSpaceOnUse" x="42" y="248" width="673" height="286" fill="black">
<rect fill="white" x="42" y="248" width="673" height="286"/>
<path d="M152.092 464.75L43.5924 409.8V365.7L152.092 310.75V360.1L84.1924 387.4L152.092 415.4V464.75ZM345.396 533V417.15L291.496 249.5H350.646L377.596 339.1L401.746 249.5H458.446L405.596 417.15V533H345.396ZM604.754 464.75V415.4L672.654 387.4L604.754 360.1V310.75L713.255 365.7V409.8L604.754 464.75Z"/>
</mask>
<path d="M152.092 464.75L43.5924 409.8V365.7L152.092 310.75V360.1L84.1924 387.4L152.092 415.4V464.75ZM345.396 533V417.15L291.496 249.5H350.646L377.596 339.1L401.746 249.5H458.446L405.596 417.15V533H345.396ZM604.754 464.75V415.4L672.654 387.4L604.754 360.1V310.75L713.255 365.7V409.8L604.754 464.75Z" fill="#FF6B00"/>
<path d="M152.092 464.75L151.641 465.642L153.092 466.377V464.75H152.092ZM43.5924 409.8H42.5924V410.414L43.1406 410.692L43.5924 409.8ZM43.5924 365.7L43.1406 364.808L42.5924 365.086V365.7H43.5924ZM152.092 310.75H153.092V309.123L151.641 309.858L152.092 310.75ZM152.092 360.1L152.465 361.028L153.092 360.776V360.1H152.092ZM84.1924 387.4L83.8193 386.472L81.5409 387.388L83.8112 388.324L84.1924 387.4ZM152.092 415.4H153.092V414.731L152.474 414.476L152.092 415.4ZM152.092 464.75L152.544 463.858L44.0442 408.908L43.5924 409.8L43.1406 410.692L151.641 465.642L152.092 464.75ZM43.5924 409.8H44.5924V365.7H43.5924H42.5924V409.8H43.5924ZM43.5924 365.7L44.0442 366.592L152.544 311.642L152.092 310.75L151.641 309.858L43.1406 364.808L43.5924 365.7ZM152.092 310.75H151.092V360.1H152.092H153.092V310.75H152.092ZM152.092 360.1L151.719 359.172L83.8193 386.472L84.1924 387.4L84.5654 388.328L152.465 361.028L152.092 360.1ZM84.1924 387.4L83.8112 388.324L151.711 416.324L152.092 415.4L152.474 414.476L84.5736 386.476L84.1924 387.4ZM152.092 415.4H151.092V464.75H152.092H153.092V415.4H152.092ZM345.396 533H344.396V534H345.396V533ZM345.396 417.15H346.396V416.993L346.348 416.844L345.396 417.15ZM291.496 249.5V248.5H290.124L290.544 249.806L291.496 249.5ZM350.646 249.5L351.604 249.212L351.39 248.5H350.646V249.5ZM377.596 339.1L376.639 339.388L377.649 342.747L378.562 339.36L377.596 339.1ZM401.746 249.5V248.5H400.98L400.781 249.24L401.746 249.5ZM458.446 249.5L459.4 249.801L459.81 248.5H458.446V249.5ZM405.596 417.15L404.643 416.849L404.596 416.996V417.15H405.596ZM405.596 533V534H406.596V533H405.596ZM345.396 533H346.396V417.15H345.396H344.396V533H345.396ZM345.396 417.15L346.348 416.844L292.448 249.194L291.496 249.5L290.544 249.806L344.444 417.456L345.396 417.15ZM291.496 249.5V250.5H350.646V249.5V248.5H291.496V249.5ZM350.646 249.5L349.689 249.788L376.639 339.388L377.596 339.1L378.554 338.812L351.604 249.212L350.646 249.5ZM377.596 339.1L378.562 339.36L402.712 249.76L401.746 249.5L400.781 249.24L376.631 338.84L377.596 339.1ZM401.746 249.5V250.5H458.446V249.5V248.5H401.746V249.5ZM458.446 249.5L457.493 249.199L404.643 416.849L405.596 417.15L406.55 417.451L459.4 249.801L458.446 249.5ZM405.596 417.15H404.596V533H405.596H406.596V417.15H405.596ZM405.596 533V532H345.396V533V534H405.596V533ZM604.754 464.75H603.754V466.377L605.206 465.642L604.754 464.75ZM604.754 415.4L604.373 414.476L603.754 414.731V415.4H604.754ZM672.654 387.4L673.036 388.324L675.306 387.388L673.028 386.472L672.654 387.4ZM604.754 360.1H603.754V360.776L604.381 361.028L604.754 360.1ZM604.754 310.75L605.206 309.858L603.754 309.123V310.75H604.754ZM713.255 365.7H714.255V365.086L713.706 364.808L713.255 365.7ZM713.255 409.8L713.706 410.692L714.255 410.414V409.8H713.255ZM604.754 464.75H605.754V415.4H604.754H603.754V464.75H604.754ZM604.754 415.4L605.136 416.324L673.036 388.324L672.654 387.4L672.273 386.476L604.373 414.476L604.754 415.4ZM672.654 387.4L673.028 386.472L605.128 359.172L604.754 360.1L604.381 361.028L672.281 388.328L672.654 387.4ZM604.754 360.1H605.754V310.75H604.754H603.754V360.1H604.754ZM604.754 310.75L604.303 311.642L712.803 366.592L713.255 365.7L713.706 364.808L605.206 309.858L604.754 310.75ZM713.255 365.7H712.255V409.8H713.255H714.255V365.7H713.255ZM713.255 409.8L712.803 408.908L604.303 463.858L604.754 464.75L605.206 465.642L713.706 410.692L713.255 409.8Z" fill="black" mask="url(#path-3-outside-2_254_16)"/>
</svg>
